<svg width="30" height="30" viewBox="0 0 30 30" fill="none" xmlns="http://www.w3.org/2000/svg">
<path d="M20.625 0L9.375 0C4.19812 0 0 4.19812 0 9.375L0 20.625C0 25.8019 4.19812 30 9.375 30L20.625 30C25.8019 30 30 25.8019 30 20.625L30 9.375C30 4.19812 25.8019 0 20.625 0ZM27.1875 20.625C27.1875 24.2437 24.2437 27.1875 20.625 27.1875L9.375 27.1875C5.75625 27.1875 2.8125 24.2437 2.8125 20.625L2.8125 9.375C2.8125 5.75625 5.75625 2.8125 9.375 2.8125L20.625 2.8125C24.2437 2.8125 27.1875 5.75625 27.1875 9.375L27.1875 20.625Z" fill="black"/>
<path d="M15 7.5C10.8581 7.5 7.5 10.8581 7.5 15C7.5 19.1419 10.8581 22.5 15 22.5C19.1419 22.5 22.5 19.1419 22.5 15C22.5 10.8581 19.1419 7.5 15 7.5ZM15 19.6875C12.4162 19.6875 10.3125 17.5837 10.3125 15C10.3125 12.4144 12.4162 10.3125 15 10.3125C17.5837 10.3125 19.6875 12.4144 19.6875 15C19.6875 17.5837 17.5837 19.6875 15 19.6875Z" fill="black"/>
<path d="M23.0629 7.93673C23.6148 7.93673 24.0622 7.4893 24.0622 6.93736C24.0622 6.38542 23.6148 5.93799 23.0629 5.93799C22.5109 5.93799 22.0635 6.38542 22.0635 6.93736C22.0635 7.4893 22.5109 7.93673 23.0629 7.93673Z" fill="black"/>
</svg>
