<svg version="1.0" xmlns="http://www.w3.org/2000/svg" width="518.667" height="518.667" viewBox="0 0 389 389"><path d="M42 29v8h22.7l1.2 2.7c.7 1.6 13.7 31.1 28.8 65.8 15.1 34.6 29 66.5 30.9 70.8 1.9 4.3 3.4 8.2 3.4 8.7 0 .6-2.2 1-5 1h-5v17h20v148h-20v16h146v-15.9l-9.7-.3-9.8-.3v-147l9.7-.3 9.8-.3v-16.8l-9.9-.3-9.8-.3 5.9-13.5c3.3-7.4 8.8-20 12.2-28 6.3-14.4 11.2-25.6 34.4-79l12-27.5 12.1-.3 12.1-.3V21h-64v16h9.9c5.5 0 10.2.4 10.6 1 .6 1-55.9 131.7-58 133.9-1.1 1.2-1.6.9-2.8-2-.8-1.9-10.5-24.3-21.7-49.9-11.2-25.6-23.8-54.5-28-64.2-4.3-9.8-7.5-18-7.2-18.3.3-.3 3.8-.5 7.9-.5h7.3V21H42v8zm111.8 9.2c1 1.3 63 142.8 63.9 146.1.5 1.6-1.4 1.7-34.7 1.5l-35.2-.3-24.4-56c-13.5-30.8-27.8-63.7-31.9-73.1C87.4 47 84 38.8 84 38.2c0-1.8 68.3-1.7 69.8 0z" fill="#101b36"/></svg>