<?xml version="1.0" standalone="no"?>
<!DOCTYPE svg PUBLIC "-//W3C//DTD SVG 20010904//EN"
 "http://www.w3.org/TR/2001/REC-SVG-20010904/DTD/svg10.dtd">
<svg version="1.0" xmlns="http://www.w3.org/2000/svg"
 width="389.000000pt" height="389.000000pt" viewBox="0 0 389.000000 389.000000"
 preserveAspectRatio="xMidYMid meet">

<g transform="translate(0.000000,389.000000) scale(0.100000,-0.100000)"
fill="#101b36" stroke="none">
<path d="M420 3600 l0 -80 113 0 114 0 12 -27 c7 -16 137 -311 288 -658 151
-346 290 -665 309 -708 19 -43 34 -82 34 -87 0 -6 -22 -10 -50 -10 l-50 0 0
-85 0 -85 100 0 100 0 0 -740 0 -740 -100 0 -100 0 0 -80 0 -80 730 0 730 0 0
80 0 79 -97 3 -98 3 0 735 0 735 97 3 98 3 0 84 0 84 -99 3 -98 3 59 135 c33
74 88 200 122 280 63 144 112 256 344 790 l120 275 121 3 121 3 0 79 0 80
-320 0 -320 0 0 -80 0 -80 99 0 c55 0 102 -4 106 -10 6 -10 -559 -1317 -580
-1339 -11 -12 -16 -9 -28 20 -8 19 -105 243 -217 499 -112 256 -238 545 -280
642 -43 98 -75 180 -72 183 3 3 38 5 79 5 l73 0 0 80 0 80 -730 0 -730 0 0
-80z m1118 -92 c10 -13 630 -1428 639 -1461 5 -16 -14 -17 -347 -15 l-352 3
-244 560 c-135 308 -278 637 -319 731 -41 94 -75 176 -75 182 0 18 683 17 698
0z"/>
</g>
</svg>
