<?xml version="1.0" standalone="no"?>
<!DOCTYPE svg PUBLIC "-//W3C//DTD SVG 20010904//EN"
 "http://www.w3.org/TR/2001/REC-SVG-20010904/DTD/svg10.dtd">
<svg version="1.0" xmlns="http://www.w3.org/2000/svg"
 width="381.000000pt" height="381.000000pt" viewBox="0 0 381.000000 381.000000"
 preserveAspectRatio="xMidYMid meet">
<metadata>
Created by potrace 1.14, written by Peter Selinger 2001-2017
</metadata>
<g transform="translate(0.000000,381.000000) scale(0.100000,-0.100000)"
fill="#000000" stroke="none">
<path d="M851 3625 c-1 -6 -75 -9 -205 -8 -154 2 -207 0 -213 -10 -12 -20 -13
-136 0 -144 6 -4 60 -6 118 -5 103 2 107 2 112 -20 4 -13 6 -25 6 -27 0 -2 3
-7 8 -10 13 -9 33 -49 33 -65 0 -8 8 -22 18 -32 9 -10 16 -18 14 -18 -8 -2 11
-56 20 -56 5 0 7 -4 4 -9 -3 -5 5 -30 19 -55 14 -26 25 -54 25 -62 0 -7 5 -14
11 -14 5 0 7 -5 3 -11 -3 -6 -1 -15 6 -19 8 -5 15 -19 17 -32 2 -13 8 -24 13
-26 6 -2 10 -12 10 -22 0 -28 11 -51 21 -44 5 3 9 2 7 -3 -4 -16 14 -73 23
-73 5 0 9 -9 9 -20 0 -11 4 -20 10 -20 5 0 9 -3 8 -7 -3 -10 40 -117 64 -161
10 -18 18 -41 18 -51 0 -10 7 -24 15 -31 9 -7 14 -19 11 -27 -3 -7 -2 -13 2
-13 5 0 14 -16 21 -35 7 -19 16 -35 21 -35 4 0 7 -8 6 -17 -2 -10 5 -31 15
-47 10 -16 16 -33 13 -38 -3 -4 0 -8 5 -8 6 0 11 -9 11 -19 0 -11 5 -23 10
-26 6 -4 8 -11 5 -16 -4 -5 -1 -9 5 -9 6 0 8 -4 5 -10 -3 -5 -2 -10 3 -10 6 0
12 -10 16 -23 3 -13 15 -45 28 -73 12 -27 21 -52 20 -56 -1 -5 3 -8 9 -8 5 0
8 -4 5 -8 -3 -5 4 -23 14 -40 28 -45 33 -82 12 -84 -9 0 -26 -2 -37 -3 -46 -4
-51 -13 -52 -85 0 -38 4 -67 9 -64 4 3 8 1 8 -4 0 -8 108 -8 135 -1 6 2 20 0
32 -4 15 -6 20 -15 18 -33 -1 -13 2 -27 7 -30 4 -3 5 -11 1 -17 -10 -17 -11
-47 -1 -47 5 0 6 -5 2 -12 -13 -21 -13 -1111 0 -1127 8 -11 8 -13 -2 -7 -13 8
-13 -19 1 -41 5 -7 4 -13 0 -13 -10 0 -11 -75 -1 -85 4 -4 3 -17 -2 -30 -5
-13 -6 -26 -3 -29 4 -3 1 -6 -6 -6 -7 0 -9 -4 -6 -10 3 -5 1 -10 -4 -10 -6 0
-11 3 -11 8 0 9 -157 8 -167 -1 -12 -13 -12 -111 1 -126 9 -12 8 -13 -4 -6
-13 8 -13 7 -1 -8 12 -15 32 -17 157 -15 79 2 144 0 144 -3 0 -3 12 -4 28 -2
44 6 532 8 532 3 0 -3 81 -3 180 0 115 3 182 1 184 -5 3 -7 5 -7 5 0 1 6 43
10 109 9 l107 -1 1 78 c0 49 -4 79 -10 80 -6 1 -48 1 -93 1 -52 0 -85 4 -90
11 -12 19 -10 1453 2 1464 6 5 47 9 93 8 50 -1 85 2 91 9 5 6 8 42 7 81 l-1
70 -94 1 c-81 0 -95 3 -97 17 -1 10 4 24 12 32 8 8 14 17 13 20 -1 3 2 16 6
28 4 12 8 26 9 30 0 4 6 11 11 15 6 4 11 16 13 27 2 11 10 30 18 43 8 12 12
22 8 22 -3 0 1 11 10 25 9 13 16 31 16 39 0 8 7 21 15 30 9 8 15 18 14 21 0 3
5 20 12 38 6 18 11 35 10 40 0 4 3 7 9 7 5 0 10 4 10 9 0 5 5 22 11 38 6 15
11 30 11 33 1 3 12 26 25 51 13 26 23 52 23 58 0 6 5 11 11 11 5 0 8 3 5 8 -2
4 6 30 19 57 12 28 21 53 18 58 -2 4 1 7 6 7 6 0 11 9 11 21 0 13 4 18 12 13
6 -4 8 -3 4 4 -3 6 7 36 23 66 16 31 24 56 19 56 -5 0 -3 7 4 15 30 33 34 41
30 54 -3 9 0 11 8 6 8 -5 11 -4 7 2 -4 6 10 46 30 89 20 44 36 82 35 87 -1 4
3 7 10 7 6 0 8 3 5 7 -4 3 0 17 8 29 8 13 17 31 19 41 3 19 49 125 66 155 6
10 10 25 10 33 0 8 5 15 11 15 5 0 8 4 5 9 -9 14 14 19 102 19 45 0 86 3 92 7
5 3 10 1 10 -5 0 -7 6 -8 19 -1 10 6 20 8 23 6 3 -4 3 93 -1 136 -1 15 -30 17
-303 18 -167 0 -308 -2 -313 -7 -6 -4 -12 -31 -13 -61 -1 -30 -4 -56 -6 -59
-3 -2 2 -11 10 -19 11 -11 39 -15 109 -15 l95 -1 -2 -28 c-1 -16 -5 -29 -9
-29 -4 0 -13 -17 -20 -37 -6 -21 -17 -44 -23 -52 -6 -8 -9 -16 -7 -18 2 -2 -4
-19 -12 -36 -39 -78 -87 -190 -87 -202 0 -8 -6 -20 -12 -27 -7 -7 -14 -20 -16
-28 -2 -8 -17 -43 -33 -78 -16 -35 -29 -68 -29 -73 0 -5 -4 -9 -8 -9 -4 0 -8
-10 -9 -21 -1 -12 -10 -31 -20 -42 -12 -14 -13 -18 -3 -12 12 7 11 4 -2 -11
-9 -10 -18 -28 -20 -39 -1 -11 -6 -23 -11 -26 -4 -3 -9 -14 -11 -25 -3 -10
-11 -32 -20 -49 -12 -25 -35 -77 -41 -95 -1 -3 -8 -18 -15 -35 -7 -16 -13 -33
-12 -37 1 -5 -2 -8 -8 -8 -6 0 -9 -3 -8 -7 1 -9 -6 -27 -42 -108 -15 -33 -30
-70 -34 -83 -4 -12 -11 -22 -15 -22 -5 0 -11 -12 -14 -27 -4 -16 -16 -43 -27
-61 -17 -28 -23 -32 -35 -22 -8 7 -13 16 -10 20 3 4 -5 19 -16 34 -11 14 -18
26 -14 26 3 0 -2 15 -12 33 -9 17 -18 34 -18 37 0 3 -6 15 -13 28 -7 12 -10
22 -7 22 3 0 0 12 -8 28 -39 74 -57 115 -57 128 0 8 -3 14 -8 14 -7 0 -32 63
-34 88 -1 6 -5 12 -10 12 -4 0 -8 4 -8 9 0 5 -8 26 -17 47 -9 22 -17 41 -17
44 -1 3 -10 23 -21 45 -10 22 -20 46 -21 54 -2 8 -9 18 -16 22 -7 5 -10 9 -5
9 4 0 -1 17 -12 39 -11 21 -17 41 -14 45 4 3 1 6 -6 6 -7 0 -9 5 -6 10 3 6 1
10 -4 10 -6 0 -11 8 -11 18 0 10 -8 29 -17 42 -10 14 -16 25 -15 25 2 0 -1 13
-7 28 -6 16 -11 33 -11 38 0 5 -5 9 -11 9 -5 0 -7 5 -4 10 3 6 1 10 -6 10 -7
0 -9 3 -6 6 3 4 1 16 -5 28 -7 11 -13 23 -13 26 0 3 -6 15 -13 28 -7 12 -9 22
-5 22 4 0 2 4 -5 9 -7 4 -14 18 -15 29 -1 12 -4 22 -8 22 -4 0 -11 9 -14 21
-4 11 -16 42 -28 67 -11 26 -22 52 -23 57 -1 6 -3 17 -5 25 -3 12 9 15 65 16
45 1 71 6 77 15 10 17 6 109 -5 128 -7 10 -5 12 5 6 11 -7 12 -6 2 6 -11 13
-42 17 -78 9 -5 -1 -14 -2 -20 -1 -5 1 -71 1 -145 1 -534 -6 -770 -4 -774 5
-3 7 -5 7 -5 0z m375 -169 c7 -3 15 -2 18 2 2 4 50 5 106 2 56 -3 110 -2 121
2 12 5 19 3 19 -5 0 -8 4 -6 10 3 7 11 10 11 10 2 0 -7 4 -11 10 -7 12 8 47
-28 42 -43 -2 -7 1 -12 7 -12 6 0 11 -8 11 -18 0 -10 3 -22 8 -26 4 -4 7 -11
7 -14 1 -4 8 -23 17 -42 15 -35 42 -94 69 -157 8 -18 18 -33 22 -33 5 0 6 -4
3 -8 -2 -4 11 -41 30 -81 19 -40 34 -79 34 -87 0 -8 5 -14 10 -14 6 0 10 -6
10 -13 0 -7 12 -38 27 -68 15 -30 26 -60 24 -67 -1 -7 5 -15 13 -18 8 -3 13
-11 10 -19 -3 -7 2 -19 10 -28 9 -9 16 -20 16 -26 0 -5 5 -22 12 -38 6 -15 12
-30 13 -33 0 -3 12 -27 25 -55 12 -27 23 -56 23 -62 0 -7 4 -13 9 -13 5 0 7
-4 4 -9 -4 -5 -2 -11 3 -13 5 -1 11 -12 13 -23 1 -11 6 -22 10 -25 3 -3 8 -14
10 -25 1 -11 9 -26 16 -33 7 -8 10 -18 7 -23 -4 -5 -1 -9 5 -9 6 0 8 -4 5 -10
-3 -5 -1 -10 5 -10 6 0 8 -4 5 -10 -3 -5 -1 -10 5 -10 7 0 10 -6 7 -14 -3 -8
1 -20 8 -26 8 -7 14 -15 13 -18 -1 -4 3 -17 10 -28 6 -12 8 -24 5 -28 -3 -3
-1 -6 5 -6 7 0 11 -3 10 -7 -4 -14 13 -53 23 -53 5 0 8 -3 8 -7 -3 -18 14 -72
21 -68 5 3 7 -6 5 -20 -1 -14 2 -25 8 -25 6 0 7 -3 3 -7 -4 -5 -163 -8 -353
-8 -341 0 -346 0 -362 21 -9 12 -23 41 -31 65 -8 24 -17 46 -21 49 -4 3 -9 14
-11 25 -1 11 -6 22 -9 25 -10 8 -49 101 -49 116 0 8 -5 14 -11 14 -5 0 -7 4
-4 10 3 6 2 10 -3 10 -5 0 -9 6 -9 13 0 6 -12 36 -27 66 -14 30 -26 61 -26 68
0 7 -5 13 -11 13 -5 0 -7 5 -4 10 3 6 1 10 -5 10 -6 0 -9 4 -6 8 2 4 -8 35
-24 67 -16 33 -30 66 -30 73 0 6 -5 12 -12 12 -6 0 -9 3 -5 6 3 4 -2 23 -13
44 -11 21 -16 40 -13 44 4 3 2 6 -4 6 -6 0 -17 20 -24 44 -7 25 -17 42 -21 40
-4 -3 -8 2 -8 10 0 9 -11 40 -24 70 -13 30 -22 57 -18 60 3 3 0 6 -6 6 -7 0
-12 5 -12 10 0 6 -9 30 -20 55 -11 25 -30 66 -41 93 -12 26 -22 52 -23 58 -1
7 -7 18 -14 26 -6 8 -9 18 -5 21 3 4 1 7 -6 7 -7 0 -9 5 -6 10 3 6 2 10 -3 10
-5 0 -9 7 -10 15 -1 8 -3 22 -4 30 -1 8 -4 15 -8 15 -8 0 -45 91 -42 103 1 4
-2 7 -8 7 -5 0 -7 7 -3 16 4 10 14 14 29 11 13 -2 24 -1 24 2 0 7 316 5 336
-3z"/>
</g>
</svg>
